<svg width="0" height="0" class="hidden"><symbol xmlns="http://www.w3.org/2000/svg" viewBox="0 0 512 512" id="android"><path d="M358.9 32H153.1C130.5 32 112 50.3 112 72.7v366.5c0 22.4 18.5 40.7 41.1 40.7h205.7c22.6 0 41.1-18.3 41.1-40.7V72.7c.1-22.4-18.4-40.7-41-40.7zm5.1 368H148V112h216v288z" fill="#0b72b9"></path></symbol><symbol xmlns="http://www.w3.org/2000/svg" viewBox="0 0 512 512" id="bell"><path d="M255.9 456c31.1 0 48.1-22 48.1-53h-96.3c0 31 17 53 48.2 53zM412 352.2c-15.4-20.3-45.7-32.2-45.7-123.1 0-93.3-41.2-130.8-79.6-139.8-3.6-.9-6.2-2.1-6.2-5.9v-2.9c0-13.4-11-24.7-24.4-24.6-13.4-.2-24.4 11.2-24.4 24.6v2.9c0 3.7-2.6 5-6.2 5.9-38.5 9.1-79.6 46.5-79.6 139.8 0 90.9-30.3 102.7-45.7 123.1-9.9 13.1-.5 31.8 15.9 31.8h280.1c16.3 0 25.7-18.8 15.8-31.8z" fill="#0b72b9"></path></symbol><symbol xmlns="http://www.w3.org/2000/svg" viewBox="0 0 512 512" id="biometrics"><path d="M450.8 182c-8.6-24.4-20.3-44.9-33-57.5-2.6-2.6-6-4-9.7-4s-7.1 1.4-9.7 4c-5.3 5.3-5.3 14 0 19.4 9.9 9.9 19.6 27.4 26.8 48.1 7.3 21.2 11.4 43.6 11.4 63.1 0 3-.1 7.6-.2 10.1-.2 3.7 1.1 7.1 3.6 9.8 2.5 2.7 5.8 4.3 9.5 4.4h.6c7.3 0 13.3-5.7 13.7-13.1.1-3.1.2-8.1.2-11.3 0-22.8-4.7-48.8-13.2-73zM143 110.6c2.9 0 5.6-.9 8-2.6 29.9-21.4 66.2-32.7 105-32.7 40.8 0 80.1 14.8 113.7 42.8 2.5 2 5.6 3.2 8.8 3.2 4.1 0 7.9-1.8 10.5-4.9 4.8-5.8 4-14.4-1.7-19.3C348.6 65 303.3 48 256 48c-44.6 0-86.4 13.1-121 37.8-3 2.1-4.9 5.3-5.5 8.9s.2 7.2 2.4 10.2c2.5 3.6 6.7 5.7 11.1 5.7zM75.4 255c0-43.7 15.8-85.8 44.5-118.7 2.4-2.8 3.6-6.3 3.3-9.9-.2-3.6-1.9-7-4.7-9.4-2.5-2.2-5.7-3.4-9-3.4-4 0-7.7 1.7-10.3 4.7C66.2 156.2 48 204.7 48 255c0 32.8 5.9 58.8 15.4 90.2 1.8 5.8 7 9.7 13.1 9.7 1.3 0 2.7-.2 4-.6 3.5-1.1 6.4-3.4 8.1-6.6s2.1-6.9 1-10.4c-8.8-29-14.2-52.8-14.2-82.3z"></path><path d="M355.7 129.8C328.4 106.1 295 93.6 259 93.6c-48.3 0-91.4 17.8-121.5 50.1-28.7 30.8-42.8 71.7-39.7 115.1 2.3 32.7 6 50.7 9.3 66.6 4.3 21.1 7.7 37.8 5.1 84.1-.4 6.7 3.7 12.7 10 14.6 1.2.4 2.3.5 3.6.5 7.2 0 13.2-5.7 13.7-12.9 2.9-50.4-.8-68.7-5.5-91.9-3.1-15.1-6.6-32.2-8.8-63.1-2.6-35.7 9-69.3 32.4-94.5 24.8-26.7 60.9-41.4 101.4-41.4 29.3 0 56.5 10.2 78.7 29.5 22.3 19.3 39.2 47.4 49 81.1 11.4 39.3 14.5 89.3 9.1 144.5-.7 7.5 4.8 14.2 12.3 15 .4 0 .9.1 1.3.1 7.1 0 12.9-5.3 13.6-12.4 5.8-58.7 2.3-112.2-10.1-154.8-11.1-38.6-30.9-71.2-57.2-94z"></path><path d="M373.5 267.5c-5.9-37.5-19.9-68.8-40.6-90.6-20.8-22-47.4-33.7-76.9-33.7-19 0-37.7 4.1-54.1 12-3.7 1.8-6.4 5.1-7.4 9.1-1 4.1-.1 8.3 2.5 11.6 2.6 3.4 6.5 5.3 10.8 5.3 2.1 0 4-.5 5.9-1.3 12.6-6 27.2-9.2 42.2-9.2 22.4 0 42.5 9.2 58.3 26.6 16.1 17.8 27.3 43.6 32.1 74.6 4.7 29.6 7 53.5 7.1 73.1.2 39.7-4.8 72.7-4.8 73.1-.6 3.6.3 7.2 2.5 10.2s5.3 4.9 8.9 5.5c.7.1 1.4.2 2.1.2 6.8 0 12.5-4.9 13.5-11.6.2-1.4 5.4-35.2 5.2-77.5 0-21.3-2.4-46.5-7.3-77.4zm-188.2-64c4-5.8 2.9-13.6-2.5-18.2-2.5-2.1-5.6-3.2-8.8-3.2-4.5 0-8.7 2.2-11.3 5.9-14.7 21.5-19.7 49.1-14.4 79.8 8.9 51.3 16.9 111.1 9.4 165-.5 3.8.5 7.7 2.9 10.7 2.3 3 5.7 4.8 9.4 5.1.4 0 .8.1 1.2.1 6.8 0 12.6-5.1 13.5-11.8 8.2-57.7-.2-120.2-9.5-173.8-4.1-23.8-.7-43.9 10.1-59.6zM317.5 388h-.5c-7.6.3-13.5 6.6-13.2 14.2 0 .2.6 17.9-2.6 34.7-1.3 6.9 2.6 13.7 9.1 15.8 1.4.4 2.8.7 4.3.7 6.6 0 12.2-4.7 13.4-11.1 3.8-20.1 3.1-40.2 3.1-41.1-.2-7.5-6.2-13.2-13.6-13.2z"></path><path d="M294.6 205.9c-11.2-10.5-25.2-16.1-40.5-16.1-19.8 0-36.7 7.3-47.6 20.5-8.3 10.1-17 28.8-10.9 60 12.3 62.5 15 121.6 8.1 175.6-1 7.5 4.4 14.4 11.8 15.3.6.1 1.2.1 1.7.1 6.9 0 12.7-5.1 13.6-12 7.3-57 4.5-119-8.3-184.4-3.2-16.4-1.4-29.3 5.1-37.3 5.6-6.8 15-10.5 26.4-10.5 25 0 35.1 27.6 38.3 39.4 6.9 25.7 10.9 63 11.5 107.7.1 7.4 6.2 13.5 13.7 13.5h.2c3.6-.1 7-1.5 9.6-4.1 2.5-2.6 3.9-6.1 3.9-9.7-.7-47-5-86.5-12.5-114.4-4.9-18.5-13.1-33.2-24.1-43.6z"></path><path d="M265.2 245.9c-2.1-5.1-7.1-8.5-12.7-8.5-1.8 0-3.6.4-5.2 1-7 2.9-10.3 10.9-7.4 17.9 6.6 16 11.8 46.2 14.1 82.8 2.4 36.9 1.7 76.9-2 109.6-.4 3.6.6 7.2 2.9 10.1s5.5 4.6 9.2 5c.5.1 1 .1 1.5.1 7 0 12.8-5.2 13.6-12.2 3.9-35.5 4.6-76.6 2-115.8-2.5-39.3-8.2-71.3-16-90z"></path></symbol><symbol xmlns="http://www.w3.org/2000/svg" viewBox="0 0 512 512" id="camera"><circle cx="256" cy="275" r="57.5"></circle><path d="M417.5 160H363c-4.6 0-8.9-2-12-5.4-28.4-31.8-39.1-42.6-50.7-42.6h-85.5c-11.7 0-23.2 10.8-51.7 42.7-3 3.4-7.4 5.3-11.9 5.3h-4.1v-8c0-4.4-3.6-8-8-8h-26c-4.4 0-8 3.6-8 8v8h-7.5C79.9 160 64 173.2 64 190.7v176c0 17.5 15.9 33.3 33.5 33.3h320c17.6 0 30.5-15.8 30.5-33.3v-176c0-17.5-12.9-30.7-30.5-30.7zM260 360.4c-50.3 2.3-91.7-39.1-89.4-89.4 2-43.9 37.5-79.4 81.4-81.4 50.3-2.3 91.7 39.1 89.4 89.4-2 43.9-37.5 79.4-81.4 81.4zM352 218c-7.2 0-13-5.8-13-13s5.8-13 13-13 13 5.8 13 13-5.8 13-13 13z"></path></symbol><symbol xmlns="http://www.w3.org/2000/svg" viewBox="0 0 512 512" id="customized"><circle cx="144" cy="368" r="42"></circle><path d="M367.5 272h-223C91.2 272 48 315.2 48 368.5S91.2 464 144.5 464h223c53.3 0 96.5-42.2 96.5-95.5S420.8 272 367.5 272zM144 432c-35.3 0-64-28.7-64-64s28.7-64 64-64 64 28.7 64 64-28.7 64-64 64z"></path><circle cx="368" cy="144" r="42"></circle><path d="M144.5 240h223c53.3 0 96.5-42.2 96.5-95.5S420.8 48 367.5 48h-223C91.2 48 48 91.2 48 144.5S91.2 240 144.5 240zM368 80c35.3 0 64 28.7 64 64s-28.7 64-64 64-64-28.7-64-64 28.7-64 64-64z"></path></symbol><symbol xmlns="http://www.w3.org/2000/svg" viewBox="0 0 512 512" id="data"><path d="M379.4 178.3l-87.2 133.4C299 320 303 330.5 303 342c0 26.5-21.5 48-48 48s-48-21.5-48-48c0-3 .3-6 .8-8.9l-57.6-33.5c-8.6 8.3-20.3 13.4-33.3 13.4-8.6 0-16.6-2.3-23.6-6.2L32 364.2v57.2c0 23.5 19.2 42.7 42.7 42.7h362.7c23.5 0 42.7-19.2 42.7-42.7V208.8l-58.6-38.9c-8.1 6.3-18.3 10.1-29.4 10.1-4.4 0-8.7-.6-12.7-1.7z"></path><path d="M117 217c26.5 0 48 21.5 48 48 0 2.1-.2 4.2-.4 6.2l60.1 33.6c8.3-6.8 18.8-10.8 30.4-10.8 3.6 0 7.1.4 10.4 1.1l87.4-135.4c-5.6-7.8-8.9-17.4-8.9-27.8 0-26.5 21.5-48 48-48s48 21.5 48 48c0 3.9-.5 7.7-1.3 11.3l41.3 27.6V90.7c0-23.5-19.2-42.7-42.7-42.7H74.7C51.2 48 32 67.2 32 90.7V320l40-38.3c-1.9-5.2-3-10.8-3-16.7 0-26.5 21.5-48 48-48z"></path></symbol><symbol xmlns="http://www.w3.org/2000/svg" viewBox="0 0 512 512" id="globe"><path d="M256 48h-.7c-55.4.2-107.4 21.9-146.6 61.1C69.6 148.4 48 200.5 48 256s21.6 107.6 60.8 146.9c39.1 39.2 91.2 60.9 146.6 61.1h.7c114.7 0 208-93.3 208-208S370.7 48 256 48zm180.2 194h-77.6c-.9-26.7-4.2-52.2-9.8-76.2 17.1-5.5 33.7-12.5 49.7-21 22 28.2 35 61.6 37.7 97.2zM242 242h-61.8c.8-24.5 3.8-47.7 8.8-69.1 17.4 3.9 35.1 6.3 53 7.1v62zm0 28v61.9c-17.8.8-35.6 3.2-53 7.1-5-21.4-8-44.6-8.8-69H242zm28 0h61.3c-.8 24.4-3.8 47.6-8.8 68.9-17.2-3.9-34.8-6.2-52.5-7V270zm0-28v-62c17.8-.8 35.4-3.2 52.5-7 5 21.4 8 44.5 8.8 69H270zm109.4-117.9c-12.3 6.1-25 11.3-38 15.5-7.1-21.4-16.1-39.9-26.5-54.5 24 8.3 45.9 21.6 64.5 39zM315 146.8c-14.7 3.2-29.8 5.2-45 6V79.4c17 9.2 33.6 33.9 45 67.4zM242 79v73.7c-15.4-.8-30.6-2.8-45.5-6.1 11.6-33.8 28.4-58.5 45.5-67.6zm-45.6 6.4c-10.3 14.5-19.2 32.9-26.3 54.1-12.8-4.2-25.4-9.4-37.5-15.4 18.4-17.3 40.1-30.5 63.8-38.7zm-82.9 59.5c15.8 8.4 32.3 15.4 49.2 20.8-5.7 23.9-9 49.5-9.8 76.2h-77c2.6-35.4 15.6-68.8 37.6-97zM75.8 270h77c.9 26.7 4.2 52.3 9.8 76.2-16.9 5.5-33.4 12.5-49.2 20.8-21.9-28.1-34.9-61.5-37.6-97zm56.7 117.9c12.1-6 24.7-11.2 37.6-15.4 7.1 21.3 16 39.6 26.3 54.2-23.7-8.4-45.4-21.5-63.9-38.8zm64-22.6c14.9-3.3 30.2-5.3 45.5-6.1V433c-17.2-9.1-33.9-33.9-45.5-67.7zm73.5 67.3v-73.5c15.2.8 30.3 2.8 45 6-11.4 33.6-28 58.3-45 67.5zm45-5.7c10.4-14.6 19.4-33.1 26.5-54.5 13 4.2 25.8 9.5 38 15.6-18.6 17.3-40.6 30.6-64.5 38.9zm83.5-59.8c-16-8.5-32.6-15.5-49.7-21 5.6-23.9 8.9-49.4 9.8-76.1h77.6c-2.7 35.5-15.6 68.9-37.7 97.1z" fill="#0b72b9"></path></symbol><symbol xmlns="http://www.w3.org/2000/svg" viewBox="0 0 512 512" id="gps"><path d="M256 48c-79.5 0-144 59.9-144 133.7 0 104 144 282.3 144 282.3s144-178.3 144-282.3C400 107.9 335.5 48 256 48zm0 190.9c-25.9 0-46.9-21-46.9-46.9s21-46.9 46.9-46.9 46.9 21 46.9 46.9-21 46.9-46.9 46.9z" fill="#0b72b9"></path></symbol><symbol xmlns="http://www.w3.org/2000/svg" viewBox="0 0 512 512" id="info"><path d="M235.4 172.2c0-11.4 9.3-19.9 20.5-19.9 11.4 0 20.7 8.5 20.7 19.9s-9.3 20-20.7 20c-11.2 0-20.5-8.6-20.5-20zm1.4 35.7H275V352h-38.2V207.9z"></path><path d="M256 76c48.1 0 93.3 18.7 127.3 52.7S436 207.9 436 256s-18.7 93.3-52.7 127.3S304.1 436 256 436s-93.3-18.7-127.3-52.7S76 304.1 76 256s18.7-93.3 52.7-127.3S207.9 76 256 76m0-28C141.1 48 48 141.1 48 256s93.1 208 208 208 208-93.1 208-208S370.9 48 256 48z"></path></symbol><symbol xmlns="http://www.w3.org/2000/svg" viewBox="0 0 512 512" id="iphone"><path d="M335.7 32H177.1C158.8 32 144 46.6 144 64.9v381c0 18.4 14.8 34.1 33.1 34.1h158.5c18.3 0 32.3-15.7 32.3-34.1v-381C368 46.6 354 32 335.7 32zM241 55h30c2.2 0 4 1.8 4 4s-1.8 4-4 4h-30c-2.2 0-4-1.8-4-4s1.8-4 4-4zm15.5 410c-9.6 0-17.4-7.8-17.4-17.4s7.8-17.4 17.4-17.4c9.6 0 17.4 7.8 17.4 17.4s-7.8 17.4-17.4 17.4zm93.5-49H162c-1.1 0-2-.9-2-2V85c0-1.1.9-2 2-2h188c1.1 0 2 .9 2 2v329c0 1.1-.9 2-2 2z" fill="#0b72b9"></path></symbol><symbol xmlns="http://www.w3.org/2000/svg" viewBox="0 0 302.3 248.4" id="mobile"><path d="M298.5 3.9C296 1.4 292.6 0 289.1 0H138.2C130.9 0 125 5.9 125 13.2V235c0 7.3 5.9 13.2 13.2 13.2H289c7.3 0 13.2-5.9 13.2-13.2V13.2c.2-3.5-1.2-6.8-3.7-9.3zm-85 5.3c2.1 0 3.9 1.7 3.9 3.9s-1.7 3.9-3.9 3.9c-2.1 0-3.9-1.7-3.9-3.9 0-2.1 1.7-3.8 3.9-3.9zm.2 233.6c-4.3 0-7.8-3.5-7.8-7.8s3.5-7.8 7.8-7.8 7.8 3.5 7.8 7.8c-.1 4.2-3.5 7.7-7.8 7.8zm79.8-21.1H133.9V26.6h159.6v195.1zM108.7 109.2H55.6c-5.8 0-10.6 5.7-10.6 12.6v113.8c0 7 4.8 12.6 10.6 12.6h53.1c5.8 0 10.6-5.7 10.6-12.6V121.9c0-7-4.8-12.7-10.6-12.7zm1.3 122H54.3V127.1H110v104.1z"></path><path d="M54 202.4H5.6c-.3 0-.6-.3-.6-.6V99.7c0-.4.2-.7.6-.7H64c.3 0 .6.3.6.6V127h4.9V93.4c.1-5.5-4.2-10.1-9.7-10.2H10.3C4.6 83.2 0 87.7 0 93.3v118.4c0 5.7 4.5 10.5 10.3 10.6H54v-19.9zM30.2 90.3h9.3c.7 0 1.2.6 1.2 1.2 0 .7-.6 1.2-1.2 1.2h-9.3c-.7 0-1.2-.6-1.2-1.2s.5-1.1 1.2-1.2zM35 217.7c-3 0-5.4-2.4-5.4-5.4 0-3 2.4-5.4 5.4-5.4 3 0 5.4 2.4 5.4 5.4 0 2.9-2.4 5.4-5.4 5.4z"></path></symbol><symbol xmlns="http://www.w3.org/2000/svg" viewBox="0 0 512 512" id="people"><path d="M349.1 334.7c-11.2-4-29.5-4.2-37.6-7.3-5.6-2.2-14.5-4.6-17.4-8.1s-2.9-28.5-2.9-28.5 7-6.6 9.9-14c2.9-7.3 4.8-27.5 4.8-27.5s6.6 2.8 9.2-10.4c2.2-11.4 6.4-17.4 5.3-25.8-1.2-8.4-5.8-6.4-5.8-6.4s5.8-8.5 5.8-37.4c0-29.8-22.5-59.1-64.6-59.1-42 0-64.7 29.4-64.7 59.1 0 28.9 5.7 37.4 5.7 37.4s-4.7-2-5.8 6.4c-1.2 8.4 3 14.4 5.3 25.8 2.6 13.3 9.2 10.4 9.2 10.4s1.9 20.1 4.8 27.5c2.9 7.4 9.9 14 9.9 14s0 25-2.9 28.5-11.8 5.9-17.4 8c-8 3.1-26.3 3.5-37.6 7.5-11.2 4-45.8 22.2-45.8 67.2h278.3c.1-45.1-34.5-63.3-45.7-67.3z"></path><path d="M140 286s23.9-.8 33.4-9.3c-15.5-23.5-7.1-50.9-10.3-76.5-3.2-25.5-17.7-40.8-46.7-40.8h-.4c-28 0-43.1 15.2-46.3 40.8-3.2 25.5 5.7 56-10.2 76.5C69 285.3 93 285 93 285s1 14.4-1 16.8-7.9 4.7-12 5.5c-8.8 1.9-18.1 4.5-25.9 7.2s-22.6 17.2-22.6 37.2h80.3c2.2-8 17.3-22.3 32-29.8 9-4.6 17.9-4.3 24.7-5.2 0 0 3.8-6-8.7-8.3 0 0-17.2-4.3-19.2-6.7-1.9-2.2-.6-15.7-.6-15.7zm232 0s-23.9-.8-33.4-9.3c15.5-23.5 7.1-50.9 10.3-76.5 3.2-25.5 17.7-40.8 46.7-40.8h.4c28 0 43.1 15.2 46.3 40.8 3.2 25.5-5.7 56 10.2 76.5-9.5 8.6-33.5 8.3-33.5 8.3s-1 14.4 1 16.8 7.9 4.7 12 5.5c8.8 1.9 18.1 4.5 25.9 7.2s22.6 17.2 22.6 37.2h-80.3c-2.2-8-17.3-22.3-32-29.8-9-4.6-17.9-4.3-24.7-5.2 0 0-3.8-6 8.7-8.3 0 0 17.2-4.3 19.2-6.7 1.9-2.2.6-15.7.6-15.7z"></path></symbol><symbol xmlns="http://www.w3.org/2000/svg" viewBox="0 0 512 512" id="person"><path d="M256 48C148.5 48 60.1 129.5 49.2 234.1c-.8 7.2-1.2 14.5-1.2 21.9s.4 14.7 1.2 21.9C60.1 382.5 148.5 464 256 464c114.9 0 208-93.1 208-208S370.9 48 256 48zm135.8 326.1c-22.7-8.6-59.5-21.2-82.4-28-2.4-.7-2.7-.9-2.7-10.7 0-8.1 3.3-16.3 6.6-23.3 3.6-7.5 7.7-20.2 9.2-31.6 4.2-4.9 10-14.5 13.6-32.9 3.2-16.2 1.7-22.1-.4-27.6-.2-.6-.5-1.2-.6-1.7-.8-3.8.3-23.5 3.1-38.8 1.9-10.5-.5-32.8-14.9-51.3-9.1-11.7-26.6-26-58.5-28h-17.5c-31.4 2-48.8 16.3-58 28-14.5 18.5-16.9 40.8-15 51.3 2.8 15.3 3.9 35 3.1 38.8-.2.7-.4 1.2-.6 1.8-2.1 5.5-3.7 11.4-.4 27.6 3.7 18.4 9.4 28 13.6 32.9 1.5 11.4 5.7 24 9.2 31.6 2.6 5.5 3.8 13 3.8 23.6 0 9.9-.4 10-2.6 10.7-23.7 7-58.9 19.4-80 27.8C91.6 341.4 76 299.9 76 256c0-48.1 18.7-93.3 52.7-127.3S207.9 76 256 76s93.3 18.7 127.3 52.7S436 207.9 436 256c0 43.9-15.6 85.4-44.2 118.1z" fill="#0b72b9"></path></symbol><symbol xmlns="http://www.w3.org/2000/svg" viewBox="0 0 512 512" id="persons"><path d="M256 48C141.1 48 48 141.1 48 256s93.1 208 208 208 208-93.1 208-208S370.9 48 256 48zm143.3 263.9c-8.1-2.6-23.7-3.4-29.5-10.4-2.9-3.5-1-16.6-1-16.6 25.2-1.4 31-6.1 31-6.1 3.9-2.3 2.1-2.7.1-6.1-10.9-18.3-6-41.5-6.5-61.6-.4-16.7-4.8-35-20-44.4-7.6-4.7-19.7-6.9-31.4-6.9-9.5 0-18.7 1.4-25.3 4.1-42.4 17-17.4 73.2-31.9 105.4-2.5 5.4-6.1 7.3.2 10.5 0 0 7.5 4.4 28.9 6.3 0 0 .3 12.6 0 13.9-1.1 4.9-11.8 8.3-15.8 9.4-2.7.7-8.7 2.5-16.4 5.7-3.7 1.5-3.1 6.9.8 7.6s8.1 1.7 11.5 2.9c0 0 26.4 6 46 25 13.2 12.7 18.1 27.6 20 44.6.5 4.5-1.7 8.9-5.5 11.5l-5.7 3.6c-1.9 1.1-4.2-.2-4.3-2.4 0-29.5-17.8-55.5-45.8-65.2-13.5-4.7-28.1-5-41.6-9.7-4.1-1.4-12.2-3.1-13.9-7.8-1.6-4.6-1.6-10-1.9-14.8-.2-3.8-.3-7.6-.3-11.4 0-2.5 6.4-7.8 7.8-10.1 5.4-9 5.9-21.1 6.9-31.3 8.7 2.4 9.8-13.7 11.3-18.6 1.1-3.4 5-20.9-2.6-23.6 2.5-4.4 3.5-9.8 4.2-14.7 2-12.8 2.8-26.8-1.1-39.3-8.1-26-33-40.6-59.3-41.4-26.7-.9-53.5 11.9-63.5 37.8-4.8 12.6-4.4 26.3-2.8 39.5.7 6 1.7 12.7 4.7 18.1-6.4 2.8-4.5 17.7-3.4 21.3 1.6 5.1 3 23.4 12.1 20.9.8 8.1 1.7 16.4 3.9 24.3 1.5 5.3 4.6 9.8 8.2 13.9 1.8 2 2.7 2.2 2.6 4.8-.1 7.8.1 16.2-1.9 23.8s-18.7 10.8-25.4 12.2c-14.8 3-28.6 4.7-41.4 11.5C84.8 320.6 76 289 76 256c0-47.9 19.2-94 53.2-127.7C162.7 95 207.1 76.4 254.3 76c47.6-.4 93.7 18.1 127.8 51.5 34.8 34.1 54 79.9 54 128.5 0 24.9-5 48.9-14.5 71.1-5.6-7-13.4-12.3-22.3-15.2z" fill="#0b72b9"></path></symbol><symbol xmlns="http://www.w3.org/2000/svg" viewBox="0 0 185.9 211.49" id="software"><path d="M133.76 192.85l-83.3 18.21a18.61 18.61 0 0 1-22.15-14.21L.43 69.35a18.62 18.62 0 0 1 14.21-22.16 18.3 18.3 0 0 1 2.54-.37l73.14-5.67a18.61 18.61 0 0 1 19.11 12.71l38 115a18.62 18.62 0 0 1-11.83 23.52 19.05 19.05 0 0 1-1.84.47z" fill="#05436f"></path><path d="M152.16 172.85l-83.3 18.21a18.59 18.59 0 0 1-22.15-14.21L18.83 49.35A18.61 18.61 0 0 1 33.04 27.2a18.32 18.32 0 0 1 2.54-.38l73.14-5.67a18.61 18.61 0 0 1 19.11 12.72l38 115A18.62 18.62 0 0 1 154 172.38c-.58.16-1.21.33-1.84.47z" fill="#0b72b9"></path><path d="M171.25 153.76l-83.3 16.2a18.6 18.6 0 0 1-22.15-14.2L37.95 28.25A18.61 18.61 0 0 1 52.16 6.1a18.32 18.32 0 0 1 2.54-.38L127.84.06a18.6 18.6 0 0 1 19.11 12.71l38 115c3.47 10.44-2.91 23.68-13.7 25.99z" fill="#7fc4fd"></path></symbol><symbol xmlns="http://www.w3.org/2000/svg" viewBox="0 0 512 512" id="upload"><path d="M437.1 165.8C429 90.6 365.4 32 288 32c-51.2 0-96.3 25.6-123.4 64.7-8.3-3.4-17.4-5.3-26.9-5.3-39.1 0-70.8 34.4-71.4 73.4C26.4 177.5 0 216.5 0 257.5 0 307.7 40.7 352 90.9 352H243V210.1l-47.9 47.2c-5.1 5-13.3 5-18.4-.1-5-5.1-5-13.3.1-18.4l70-69c1.2-1.1 2.5-2.1 4.1-2.7 1.6-.7 3.3-1 5-1 3.4 0 6.6 1.3 9.1 3.7l70 69c5.1 5 5.2 13.3.1 18.4-5 5.1-13.3 5.2-18.4.1L269 210.1V352h152.1c50.2 0 90.9-44.3 90.9-94.5 0-44.7-32.3-84.1-74.9-91.7zM243 467c0 7.2 5.8 13 13 13s13-5.8 13-13V352h-26v115z" fill="#0b72b9"></path></symbol><symbol xmlns="http://www.w3.org/2000/svg" viewBox="0 0 512 512" id="users"><path d="M385.3 386c-15.6-5.5-37.8-6.8-52.1-10-8.2-1.8-20.1-6.3-24.1-11.1-3.5-4.2-2.1-38.4-1.7-47.2.1-1.3.5-2.6 1.1-3.8 2.2-3.6 7.2-12.2 10.3-20 3-7.6 6.2-25 7.6-33.3.4-2.4 1.9-4.5 4-5.6 2.6-1.5 6.1-4.9 7.8-13.4 3.1-15.7 8-21.8 7.4-33.5-.3-5.2-1.7-8-3.2-9.5-2-1.9-2.7-4.8-2-7.4 1.9-7.6 4.7-22.6 5.2-45.6.9-41.1-31.3-81.6-89.5-81.6-59.1 0-90.5 40.5-89.6 81.6.5 23 3.3 38 5.1 45.6.6 2.7-.1 5.5-2 7.4-1.5 1.5-3 4.3-3.2 9.5-.6 11.7 4.3 17.8 7.4 33.5 1.7 8.4 5.2 11.9 7.8 13.4 2.1 1.2 3.6 3.2 4 5.6 1.4 8.3 4.6 25.7 7.6 33.3 3.1 7.8 8.2 16.5 10.3 20 .7 1.1 1.1 2.4 1.1 3.8.4 8.8 1.8 43.1-1.7 47.2-4 4.8-15.9 9.3-24.1 11.1-14.3 3.2-36.5 4.5-52.1 10-14.2 5-55.3 20.5-62.5 52.3-1.1 5 2.7 9.7 7.9 9.7H440c5.1 0 8.9-4.7 7.8-9.7-7.2-31.8-48.3-47.3-62.5-52.3z"></path><path d="M437.5 293.5h-27v-27c0-5.8-4.7-10.5-10.5-10.5s-10.5 4.7-10.5 10.5v27h-27c-5.8 0-10.5 4.7-10.5 10.5s4.7 10.5 10.5 10.5h27v27c0 5.8 4.7 10.5 10.5 10.5s10.5-4.7 10.5-10.5v-27h27c5.8 0 10.5-4.7 10.5-10.5s-4.7-10.5-10.5-10.5z"></path></symbol><symbol xmlns="http://www.w3.org/2000/svg" viewBox="0 0 240.51 206.1" id="website"><path d="M171.79 203.05a2.74 2.74 0 0 0-2.26-2.31l-12-1c-6.33-1.66-11-8.7-12-15.19l-.64-4.14H95.56l-.65 4.08c-1 6.5-5.64 13.53-12 15.2l-12 1a2.91 2.91 0 0 0-2.26 2.3 2.75 2.75 0 0 0 2.37 3.09 2.31 2.31 0 0 0 .37 0h97.6a2.71 2.71 0 0 0 2.76-2.66 2.61 2.61 0 0 0 0-.4zM236.7 3.77a13 13 0 0 0-9.13-3.76H12.99a12.86 12.86 0 0 0-9.13 3.76A13.09 13.09 0 0 0 0 12.9v146a13 13 0 0 0 3.86 9.13 12.72 12.72 0 0 0 9 3.75h214.76a12.62 12.62 0 0 0 9-3.75 13.07 13.07 0 0 0 3.86-9.13v-146a12.78 12.78 0 0 0-3.78-9.14zM120.25 158.91a4.3 4.3 0 1 1 4.3-4.3 4.32 4.32 0 0 1-4.3 4.3zm109.46-21.47H10.84a2.17 2.17 0 0 1-2.15-2.15V15.05a6.46 6.46 0 0 1 6.44-6.44h210.29a6.46 6.46 0 0 1 6.44 6.44v120.24a2.16 2.16 0 0 1-2.15 2.15z" fill="#0b72b9"></path></symbol></svg>